<?xml version="1.0" encoding="UTF-8"?>
<svg id="Layer_1" xmlns="http://www.w3.org/2000/svg" version="1.1" viewBox="0 0 214.1 195.2">
  <!-- Generator: Adobe Illustrator 29.8.2, SVG Export Plug-In . SVG Version: 2.1.1 Build 3)  -->
  <defs>
    <style>
      .st0 {
        fill: #186bff;
      }

      .st1 {
        fill: #679ae7;
      }

      .st2 {
        fill: #fff;
      }

      .st3 {
        fill: #0c3d91;
      }
    </style>
  </defs>
  <path class="st1" d="M2.7,19.2C13.4,12.9,24,6.3,34.8,0c.1,53.2,0,106.4,0,159.6-5.3,3.2-10.6,6.3-15.8,9.5-6.3,3.8-12.6,7.7-19,11.4V21.3c.8-.8,1.7-1.5,2.7-2.1Z"/>
  <path class="st0" d="M34.8,0C85.3,0,135.9,0,186.5,0c6-.3,11.8,5,11.7,11v148.6H34.8c0-53.2,0-106.4,0-159.6ZM84.6,124.3c7.4,0,14.9,0,22.3,0v-31.9c3.1,0,6.3,0,9.4,0,3.3,6.4,6.4,12.9,9.6,19.3,2.4,5.6,6,11.4,12.1,13.4,5.4,1.7,11.3,1.4,16.5-.8v-13.3c-1.8-.2-3.8-.2-5.4-1.2-1.3-.9-2.3-2.1-3-3.6-3.3-6.2-6.5-12.4-9.8-18.5,5-2.7,9.8-6.4,12.2-11.8,2.4-5,1.7-10.8,1.8-16.2,0-6-2.4-11.8-6.8-15.9-6.3-5.7-15-7.8-23.2-8.1h-35.6c0,29.5,0,59,0,88.5h0Z"/>
  <path class="st0" d="M107,51.1c4.5.2,9-.4,13.4.4,3.7.7,7,3.5,7.6,7.3.3,3.2.3,6.3.2,9.5,0,3.9-2.6,7.4-6.4,8.7-4.8,1.5-9.8.7-14.7.9,0-8.9,0-17.8,0-26.7Z"/>
  <path class="st2" d="M84.6,124.3V35.7h35.6c8.3.3,17,2.4,23.2,8.1,4.4,4.1,6.9,9.9,6.8,15.9,0,5.4.6,11.1-1.8,16.2-2.4,5.3-7.2,9.1-12.2,11.8,3.3,6.2,6.6,12.3,9.8,18.5.7,1.4,1.7,2.7,3,3.6,1.6,1,3.6,1,5.4,1.2v13.3c-5.2,2.2-11.1,2.5-16.5.8-6.1-2-9.7-7.9-12.1-13.4-3.2-6.4-6.3-13-9.6-19.3-3.1.1-6.3,0-9.4,0v31.9c-7.4,0-14.9,0-22.3,0ZM106.9,51.1c0,8.9,0,17.8,0,26.7,4.9-.2,10,.6,14.7-.9,3.7-1.3,6.3-4.7,6.4-8.7.1-3.2,0-6.3-.2-9.5-.6-3.8-3.9-6.6-7.6-7.3-4.4-.8-8.9-.2-13.3-.4h0Z"/>
  <path class="st3" d="M198.3,35.9h15.8v159.4H29.7c-3.7-.4-7-2.4-9-5.5-1.3-2-1.9-4.3-1.7-6.7v-13.9c5.2-3.2,10.5-6.4,15.8-9.5,54.5,0,109,0,163.5,0,0-41.3,0-82.5,0-123.8Z"/>
</svg>